<?xml version="1.0" encoding="iso-8859-1"?>
<!-- Generator: Adobe Illustrator 19.0.0, SVG Export Plug-In . SVG Version: 6.00 Build 0)  -->
<svg version="1.1" id="Capa_1" xmlns="http://www.w3.org/2000/svg" xmlns:xlink="http://www.w3.org/1999/xlink" x="0px" y="0px"
	 viewBox="0 0 512 512" style="enable-background:new 0 0 512 512;" xml:space="preserve">
<g>
	<g>
		<path d="M507.606,73.25L438.749,4.394C435.936,1.58,432.121,0,428.143,0c-3.978,0-7.794,1.581-10.607,4.394L348.682,73.25
			L245.394,176.534c-2.813,2.813-4.394,6.628-4.394,10.607V241H15c-8.284,0-15,6.716-15,15v241c0,8.284,6.716,15,15,15h241
			c8.284,0,15-6.716,15-15V271h53.857c3.978,0,7.793-1.58,10.607-4.393l103.285-103.288l68.857-68.855
			C510.419,91.65,512,87.835,512,83.856C512,79.878,510.419,76.063,507.606,73.25z M241,482H30V271h211V482z M318.645,241H271
			v-47.646l88.288-88.284l47.642,47.643L318.645,241z M428.143,131.499l-47.642-47.642l47.642-47.643l47.644,47.643L428.143,131.499
			z"/>
	</g>
</g>
<g>
</g>
<g>
</g>
<g>
</g>
<g>
</g>
<g>
</g>
<g>
</g>
<g>
</g>
<g>
</g>
<g>
</g>
<g>
</g>
<g>
</g>
<g>
</g>
<g>
</g>
<g>
</g>
<g>
</g>
</svg>
